<?xml version="1.0" encoding="UTF-8" standalone="no"?><svg xmlns="http://www.w3.org/2000/svg" fill="#ffffff" height="18pt" version="1.1" viewBox="0 0 17 18" width="17pt">
 <g id="change1_1">
  <path d="m8.25 17c-4.5547 0-8.25-3.695-8.25-8.25 0-4.5547 3.6953-8.25 8.25-8.25 4.555 0 8.25 3.6953 8.25 8.25 0 4.555-3.695 8.25-8.25 8.25zm0-1.5c3.727 0 6.75-3.023 6.75-6.75 0-3.7266-3.023-6.75-6.75-6.75-3.7266 0-6.75 3.0234-6.75 6.75 0 3.727 3.0234 6.75 6.75 6.75zm1.785-8.0547c-0.0506-0.207-0.1248-0.3984-0.2186-0.5703-0.0937-0.1719-0.2148-0.3242-0.3633-0.4531-0.1445-0.125-0.3164-0.2227-0.5156-0.293-0.1953-0.0703-0.4258-0.1055-0.6875-0.1055-0.3789 0-0.707 0.0743-0.9844 0.2305-0.2773 0.1523-0.5039 0.3594-0.6797 0.6172-0.1718 0.2578-0.3007 0.5469-0.3828 0.875-0.0859 0.3281-0.1289 0.6641-0.1289 1.0039s0.043 0.6758 0.1289 1.0039c0.0821 0.3281 0.211 0.6171 0.3828 0.8751 0.1758 0.258 0.4024 0.465 0.6797 0.617 0.2774 0.156 0.6055 0.231 0.9844 0.231 0.2812 0 0.5312-0.047 0.7422-0.145 0.2148-0.098 0.3984-0.23 0.5547-0.402 0.1523-0.168 0.2734-0.368 0.3593-0.594 0.086-0.231 0.1448-0.4727 0.1718-0.7344h1.223c-0.028 0.4294-0.121 0.8204-0.278 1.1754-0.156 0.352-0.367 0.657-0.636 0.914-0.266 0.258-0.5823 0.457-0.9417 0.598-0.3633 0.141-0.7578 0.211-1.1953 0.211-0.5312 0-1.0117-0.098-1.4375-0.297-0.4258-0.195-0.7852-0.465-1.0781-0.805-0.293-0.343-0.5196-0.738-0.6758-1.195-0.1563-0.453-0.2344-0.9374-0.2344-1.453 0-0.5078 0.0781-0.9883 0.2344-1.4453 0.1562-0.4531 0.3828-0.8516 0.6758-1.1914 0.2929-0.3399 0.6523-0.6133 1.0781-0.8125s0.9063-0.3008 1.4375-0.3008c0.4023 0 0.7812 0.0547 1.1328 0.1641 0.3555 0.1132 0.6682 0.2734 0.9372 0.4843 0.274 0.2071 0.492 0.4649 0.66 0.7657 0.165 0.3007 0.27 0.6445 0.309 1.0312z" fill="inherit"/>
 </g>
</svg>