<?xml version="1.0" encoding="UTF-8" standalone="no"?><svg xmlns="http://www.w3.org/2000/svg" xmlns:xlink="http://www.w3.org/1999/xlink" fill="#000000" height="2043.5" preserveAspectRatio="xMidYMid meet" version="1" viewBox="-481.4 110.0 2006.1 2043.5" width="2006.1" zoomAndPan="magnify"><g><g id="change1_2"><path d="M1524.6531,1113.0935L1515.4966,1249.2017Q1450.3973,1660.5311,1134.5364,1907.1465Q816.49,2153.5625,385.49344,2106.9883Q-25.836426,2041.889,-272.45135,1726.0284Q-351.4695,1623.9281,-402.625,1503.5264L-445.61975,1379.7444Q-481.0514,1251.9843,-481.44974,1113.0935Q-470.6937,686.8601,-187.66281,403.82907Q95.36813,120.79814,521.60156,110.042114Q947.8351,120.79814,1230.8661,403.82907Q1513.897,686.8601,1524.6531,1113.0935"/></g><g fill="#69a268" id="change2_1"><path d="M173.12282,588.79047L94.67754,588.7904L16.23227,588.7904Q428.07016,1098.6849,839.9081,1608.5795Q918.3535,1608.5796,996.79895,1608.5798L173.12282,588.79047"/></g><g fill="#69a268" id="change2_2"><path d="M879.1309,588.7909L879.1309,588.7914L957.5766,588.79285Q526.1272,1098.6858,94.677765,1608.5789L16.232502,1608.5787L879.1309,588.7909"/></g><g id="change1_1"><path d="M158.32043,635.4671L126.00418,635.85004L93.68791,636.233Q471.82013,1103.3541,849.95233,1570.4753Q883.46344,1570.3496,916.9746,1570.2239L158.32043,635.4671"/></g></g></svg>